<svg width="21" height="21" viewBox="0 0 21 21" fill="none" xmlns="http://www.w3.org/2000/svg">
<path d="M6.66667 15.625L10.4167 11.875L14.1667 15.625L15.625 14.1667L11.875 10.4167L15.625 6.66667L14.1667 5.20833L10.4167 8.95833L6.66667 5.20833L5.20833 6.66667L8.95833 10.4167L5.20833 14.1667L6.66667 15.625ZM10.4167 20.8333C8.97569 20.8333 7.62153 20.5599 6.35417 20.013C5.08681 19.4661 3.98437 18.724 3.04687 17.7865C2.10937 16.849 1.36719 15.7465 0.820312 14.4792C0.273438 13.2118 0 11.8576 0 10.4167C0 8.97569 0.273438 7.62153 0.820312 6.35417C1.36719 5.08681 2.10937 3.98437 3.04687 3.04687C3.98437 2.10937 5.08681 1.36719 6.35417 0.820312C7.62153 0.273438 8.97569 0 10.4167 0C11.8576 0 13.2118 0.273438 14.4792 0.820312C15.7465 1.36719 16.849 2.10937 17.7865 3.04687C18.724 3.98437 19.4661 5.08681 20.013 6.35417C20.5599 7.62153 20.8333 8.97569 20.8333 10.4167C20.8333 11.8576 20.5599 13.2118 20.013 14.4792C19.4661 15.7465 18.724 16.849 17.7865 17.7865C16.849 18.724 15.7465 19.4661 14.4792 20.013C13.2118 20.5599 11.8576 20.8333 10.4167 20.8333ZM10.4167 18.75C12.7431 18.75 14.7135 17.9427 16.3281 16.3281C17.9427 14.7135 18.75 12.7431 18.75 10.4167C18.75 8.09028 17.9427 6.11979 16.3281 4.50521C14.7135 2.89062 12.7431 2.08333 10.4167 2.08333C8.09028 2.08333 6.11979 2.89062 4.50521 4.50521C2.89062 6.11979 2.08333 8.09028 2.08333 10.4167C2.08333 12.7431 2.89062 14.7135 4.50521 16.3281C6.11979 17.9427 8.09028 18.75 10.4167 18.75Z" fill="#1D1B20"/>
</svg>
