<svg width="20" height="20" viewBox="0 0 20 20" fill="none" xmlns="http://www.w3.org/2000/svg">
<path d="M4.87484 14.2498C5.58317 13.7082 6.37484 13.2811 7.24984 12.9686C8.12484 12.6561 9.0415 12.4998 9.99984 12.4998C10.9582 12.4998 11.8748 12.6561 12.7498 12.9686C13.6248 13.2811 14.4165 13.7082 15.1248 14.2498C15.6109 13.6804 15.9894 13.0346 16.2603 12.3123C16.5311 11.5901 16.6665 10.8193 16.6665 9.99984C16.6665 8.15262 16.0172 6.5797 14.7186 5.28109C13.42 3.98248 11.8471 3.33317 9.99984 3.33317C8.15262 3.33317 6.5797 3.98248 5.28109 5.28109C3.98248 6.5797 3.33317 8.15262 3.33317 9.99984C3.33317 10.8193 3.46859 11.5901 3.73942 12.3123C4.01025 13.0346 4.38873 13.6804 4.87484 14.2498ZM9.99984 10.8332C9.18039 10.8332 8.48942 10.5519 7.92692 9.98942C7.36442 9.42692 7.08317 8.73595 7.08317 7.9165C7.08317 7.09706 7.36442 6.40609 7.92692 5.84359C8.48942 5.28109 9.18039 4.99984 9.99984 4.99984C10.8193 4.99984 11.5103 5.28109 12.0728 5.84359C12.6353 6.40609 12.9165 7.09706 12.9165 7.9165C12.9165 8.73595 12.6353 9.42692 12.0728 9.98942C11.5103 10.5519 10.8193 10.8332 9.99984 10.8332ZM9.99984 18.3332C8.84706 18.3332 7.76373 18.1144 6.74984 17.6769C5.73595 17.2394 4.854 16.6457 4.104 15.8957C3.354 15.1457 2.76025 14.2637 2.32275 13.2498C1.88525 12.2359 1.6665 11.1526 1.6665 9.99984C1.6665 8.84706 1.88525 7.76373 2.32275 6.74984C2.76025 5.73595 3.354 4.854 4.104 4.104C4.854 3.354 5.73595 2.76025 6.74984 2.32275C7.76373 1.88525 8.84706 1.6665 9.99984 1.6665C11.1526 1.6665 12.2359 1.88525 13.2498 2.32275C14.2637 2.76025 15.1457 3.354 15.8957 4.104C16.6457 4.854 17.2394 5.73595 17.6769 6.74984C18.1144 7.76373 18.3332 8.84706 18.3332 9.99984C18.3332 11.1526 18.1144 12.2359 17.6769 13.2498C17.2394 14.2637 16.6457 15.1457 15.8957 15.8957C15.1457 16.6457 14.2637 17.2394 13.2498 17.6769C12.2359 18.1144 11.1526 18.3332 9.99984 18.3332Z" fill="#1D1B20"/>
</svg>
